<svg xmlns="http://www.w3.org/2000/svg" version="1.1" xmlns:xlink="http://www.w3.org/1999/xlink" xmlns:svgjs="http://svgjs.dev/svgjs" width="2000" height="212" viewBox="0 0 2000 212"><g transform="matrix(1,0,0,1,-1.0200158890214652,2.2706937505343348)"><svg viewBox="0 0 396 42" data-background-color="#ffffff" preserveAspectRatio="xMidYMid meet" height="212" width="2000" xmlns="http://www.w3.org/2000/svg" xmlns:xlink="http://www.w3.org/1999/xlink"><g id="tight-bounds" transform="matrix(1,0,0,1,0.2400000000000091,0.2864081607887954)"><svg viewBox="0 0 395.52 41.42718367842241" height="41.42718367842241" width="395.52"><g><svg viewBox="0 0 484.66719214155626 50.76455499533146" height="41.42718367842241" width="395.52"><g><rect width="4.555223839303231" height="50.76455499533146" x="72.66729856585717" y="0" fill="#000000" opacity="1" stroke-width="0" stroke="transparent" fill-opacity="1" class="rect-yte-0" data-fill-palette-color="primary" rx="1%" id="yte-0" data-palette-color="#ffffff"></rect></g><g transform="matrix(1,0,0,1,89.14719214155629,0.12627998755057135)"><svg viewBox="0 0 395.52 50.511995020230316" height="50.511995020230316" width="395.52"><g id="textblocktransform"><svg viewBox="0 0 395.52 50.511995020230316" height="50.511995020230316" width="395.52" id="textblock"><g><svg viewBox="0 0 395.52 50.511995020230316" height="50.511995020230316" width="395.52"><g transform="matrix(1,0,0,1,0,0)"><svg width="395.52" viewBox="1.46 -29.52 235.31 30.06" height="50.511995020230316" data-palette-color="#ffffff"><path d="M15.87-28.98Q21.02-28.98 23.78-26.71 26.54-24.44 26.54-20.12L26.54-20.12Q26.54-14.48 20.48-13.01L20.48-13.01Q21.8-12.5 22.58-11.5L22.58-11.5Q23.1-10.84 23.52-10.12 23.95-9.4 24.51-8.3L24.51-8.3Q25.1-7.13 25.42-6.62L25.42-6.62Q25.9-5.81 26.39-5.41 26.88-5 27.49-5L27.49-5 27.95-5Q28.54-5 28.86-4.8 29.17-4.59 29.33-4.05 29.49-3.52 29.49-2.49L29.49-2.49Q29.49-1.46 29.33-0.93 29.17-0.39 28.86-0.2 28.54 0 27.95 0L27.95 0 25.59 0Q23.66 0 22.46-0.78 21.26-1.56 20.26-3.39L20.26-3.39Q19.78-4.25 19.09-5.74L19.09-5.74Q18.6-6.86 18.16-7.68 17.72-8.5 17.19-9.28L17.19-9.28Q16.43-10.33 15.5-10.79 14.58-11.25 13.28-11.25L13.28-11.25 11.72-11.25 11.72-5 14.09-5Q14.67-5 14.99-4.8 15.31-4.59 15.47-4.05 15.63-3.52 15.63-2.49L15.63-2.49Q15.63-1.46 15.47-0.93 15.31-0.39 14.99-0.2 14.67 0 14.09 0L14.09 0 3 0Q2.42 0 2.1-0.2 1.78-0.39 1.62-0.93 1.46-1.46 1.46-2.49L1.46-2.49Q1.46-3.52 1.62-4.05 1.78-4.59 2.1-4.8 2.42-5 3-5L3-5 5.62-5 5.62-23.97 3-23.97Q2.42-23.97 2.1-24.17 1.78-24.37 1.62-24.9 1.46-25.44 1.46-26.46L1.46-26.46Q1.46-27.49 1.62-28.03 1.78-28.56 2.1-28.77 2.42-28.98 3-28.98L3-28.98 15.87-28.98ZM11.72-23.73L11.72-16.5 15.36-16.5Q17.85-16.5 19.04-17.4 20.24-18.29 20.24-20.12L20.24-20.12Q20.24-21.95 19.04-22.84 17.85-23.73 15.36-23.73L15.36-23.73 11.72-23.73ZM45.31-23.1Q49.02-23.1 51.63-21.5 54.25-19.9 55.58-17.05 56.91-14.21 56.91-10.55L56.91-10.55Q56.91-9.72 56.55-9.38 56.2-9.03 55.37-9.03L55.37-9.03 39.69-9.03Q40.16-7.08 41.68-6.04 43.21-5 45.55-5L45.55-5Q49.34-5 53.76-6.35L53.76-6.35Q54.05-6.45 54.34-6.45L54.34-6.45Q54.88-6.45 55.27-5.96 55.66-5.47 55.98-4.3L55.98-4.3Q56.22-3.39 56.22-2.76L56.22-2.76Q56.22-2.12 55.94-1.77 55.66-1.42 55.03-1.2L55.03-1.2Q52.59-0.39 50.05 0.07 47.51 0.54 45.07 0.54L45.07 0.54Q41.35 0.54 38.67-0.98 35.98-2.49 34.58-5.16 33.18-7.84 33.18-11.28L33.18-11.28Q33.18-14.7 34.64-17.38 36.11-20.07 38.86-21.58 41.62-23.1 45.31-23.1L45.31-23.1ZM45.31-17.55Q40.84-17.55 39.79-13.79L39.79-13.79 50.53-13.79Q50.12-15.58 48.76-16.56 47.41-17.55 45.31-17.55L45.31-17.55ZM78.44-23.1Q80.66-23.1 82.33-22.12 84-21.14 84.91-19.35 85.81-17.55 85.81-15.14L85.81-15.14 85.81-5 87.69-5Q88.28-5 88.59-4.8 88.91-4.59 89.07-4.05 89.23-3.52 89.23-2.49L89.23-2.49Q89.23-1.46 89.07-0.93 88.91-0.39 88.59-0.2 88.28 0 87.69 0L87.69 0 78.56 0Q77.97 0 77.66-0.2 77.34-0.39 77.18-0.93 77.02-1.46 77.02-2.49L77.02-2.49Q77.02-3.52 77.18-4.05 77.34-4.59 77.66-4.8 77.97-5 78.56-5L78.56-5 79.71-5 79.71-13.7Q79.71-15.6 79.05-16.58 78.39-17.55 76.85-17.55L76.85-17.55Q75.43-17.55 74.16-16.37 72.9-15.19 72.13-13.21 71.36-11.23 71.36-8.98L71.36-8.98 71.36-5 72.5-5Q73.09-5 73.41-4.8 73.73-4.59 73.88-4.05 74.04-3.52 74.04-2.49L74.04-2.49Q74.04-1.46 73.88-0.93 73.73-0.39 73.41-0.2 73.09 0 72.5 0L72.5 0 63.37 0Q62.79 0 62.47-0.2 62.15-0.39 61.99-0.93 61.84-1.46 61.84-2.49L61.84-2.49Q61.84-3.52 61.99-4.05 62.15-4.59 62.47-4.8 62.79-5 63.37-5L63.37-5 65.25-5 65.25-17.55 62.89-17.55Q62.3-17.55 61.98-17.75 61.66-17.94 61.51-18.48 61.35-19.02 61.35-20.04L61.35-20.04Q61.35-21.07 61.51-21.61 61.66-22.14 61.98-22.35 62.3-22.56 62.89-22.56L62.89-22.56 68.84-22.56Q69.67-22.56 70.03-22.2 70.38-21.85 70.38-21.02L70.38-21.02 70.38-17.48Q73.6-23.1 78.44-23.1L78.44-23.1ZM101.77-29.52Q102.92-29.52 103.54-29.36 104.17-29.2 104.41-28.88 104.66-28.56 104.66-27.98L104.66-27.98 104.66-21.09 113.71-21.09Q114.57-21.09 114.91-20.53 115.25-19.97 115.25-18.46L115.25-18.46Q115.25-16.94 114.91-16.39 114.57-15.84 113.71-15.84L113.71-15.84 104.66-15.84 104.66-9.06Q104.66-5 107.81-5L107.81-5Q108.93-5 110.43-5.51 111.93-6.01 113.93-6.91L113.93-6.91Q114.47-7.13 114.79-7.13L114.79-7.13Q115.3-7.13 115.74-6.7 116.18-6.27 116.57-5.3L116.57-5.3Q117.01-4.2 117.01-3.52L117.01-3.52Q117.01-2.98 116.75-2.62 116.5-2.27 115.98-2L115.98-2Q110.95 0.54 107.27 0.54L107.27 0.54Q103.02 0.54 100.79-1.83 98.55-4.2 98.55-8.74L98.55-8.74 98.55-15.84 93.84-15.84Q92.99-15.84 92.64-16.39 92.3-16.94 92.3-18.46L92.3-18.46Q92.3-19.97 92.64-20.53 92.99-21.09 93.84-21.09L93.84-21.09 98.55-21.09 98.55-27.98Q98.55-28.81 99.3-29.16 100.04-29.52 101.77-29.52L101.77-29.52ZM145.18-28.98Q146.03-28.98 146.4-28.61 146.77-28.25 146.77-27.39L146.77-27.39 146.77-20.02Q146.77-19.19 146.06-18.84 145.35-18.48 143.79-18.48L143.79-18.48Q142.28-18.48 141.71-18.82 141.15-19.17 141.15-20.02L141.15-20.02 141.15-23.73 131.39-23.73 131.39-17.55 137.34-17.55Q138.2-17.55 138.54-16.99 138.88-16.43 138.88-14.92L138.88-14.92Q138.88-13.4 138.54-12.85 138.2-12.3 137.34-12.3L137.34-12.3 131.39-12.3 131.39-5.25 141.4-5.25 141.4-10.18Q141.4-11.01 142.12-11.36 142.84-11.72 144.47-11.72L144.47-11.72Q146.08-11.72 146.67-11.38 147.26-11.04 147.26-10.18L147.26-10.18 147.26-1.59Q147.26-0.76 146.89-0.38 146.52 0 145.67 0L145.67 0 122.91 0Q122.33 0 122.01-0.2 121.69-0.39 121.54-0.93 121.38-1.46 121.38-2.49L121.38-2.49Q121.38-3.52 121.54-4.05 121.69-4.59 122.01-4.8 122.33-5 122.91-5L122.91-5 125.28-5 125.28-23.97 122.91-23.97Q122.33-23.97 122.01-24.17 121.69-24.37 121.54-24.9 121.38-25.44 121.38-26.46L121.38-26.46Q121.38-27.49 121.54-28.03 121.69-28.56 122.01-28.77 122.33-28.98 122.91-28.98L122.91-28.98 145.18-28.98ZM164.61-23.1Q169.98-23.1 172.38-20.78 174.77-18.46 174.77-14.14L174.77-14.14 174.77-7.08Q174.77-6.1 175.18-5.55 175.6-5 176.38-5L176.38-5 177.14-5Q177.72-5 178.04-4.8 178.36-4.59 178.52-4.05 178.67-3.52 178.67-2.49L178.67-2.49Q178.67-1.46 178.52-0.93 178.36-0.39 178.04-0.2 177.72 0 177.14 0L177.14 0 174.4 0Q172.89 0 171.73-0.62 170.57-1.25 169.96-2.59L169.96-2.59Q168.03-1.1 165.88-0.28 163.73 0.54 161.46 0.54L161.46 0.54Q158.7 0.54 156.7-0.4 154.7-1.34 153.64-3.09 152.58-4.83 152.58-7.2L152.58-7.2Q152.58-10.62 154.99-12.5 157.41-14.38 161.76-14.38L161.76-14.38Q165-14.38 168.66-13.65L168.66-13.65 168.66-14.36Q168.66-15.99 167.64-16.77 166.61-17.55 164.03-17.55L164.03-17.55Q162.59-17.55 160.82-17.2 159.05-16.85 157.31-16.26L157.31-16.26Q156.9-16.14 156.6-16.14L156.6-16.14Q155.99-16.14 155.52-16.59 155.04-17.04 154.65-18.12L154.65-18.12Q154.28-19.19 154.28-19.87L154.28-19.87Q154.28-21.12 155.41-21.53L155.41-21.53Q157.58-22.31 160.02-22.71 162.46-23.1 164.61-23.1L164.61-23.1ZM162.37-9.35Q160.66-9.35 159.77-8.74 158.87-8.13 158.87-6.96L158.87-6.96Q158.87-5.81 159.74-5.21 160.61-4.61 162.24-4.61L162.24-4.61Q163.93-4.61 165.58-5.29 167.22-5.96 168.66-7.13L168.66-7.13 168.66-8.69Q165.44-9.35 162.37-9.35L162.37-9.35ZM201.99-23.1Q203.55-23.1 204.21-22.74 204.87-22.39 204.87-21.56L204.87-21.56 204.87-16.41Q204.87-15.58 204.34-15.22 203.82-14.87 202.62-14.87L202.62-14.87Q201.33-14.87 200.84-15.38L200.84-15.38Q199.4-16.92 197.54-17.57 195.69-18.21 193.25-18.21L193.25-18.21Q191.81-18.21 190.99-17.7 190.17-17.19 190.17-16.33L190.17-16.33Q190.17-15.31 191.98-14.87L191.98-14.87Q192.93-14.62 195.22-14.4L195.22-14.4Q197.49-14.14 199-13.87 200.5-13.6 201.84-13.06L201.84-13.06Q203.79-12.26 204.89-10.82 205.99-9.38 205.99-7.01L205.99-7.01Q205.99-4.69 204.86-2.99 203.72-1.29 201.54-0.38 199.35 0.54 196.27 0.54L196.27 0.54Q192.88 0.54 189.98-1.2L189.98-1.2 189.98-1Q189.98-0.17 189.27 0.18 188.56 0.54 187 0.54L187 0.54Q185.43 0.54 184.78 0.18 184.12-0.17 184.12-1L184.12-1 184.12-6.45Q184.12-7.25 184.69-7.62 185.26-7.98 186.46-7.98L186.46-7.98Q187.95-7.98 188.49-7.3L188.49-7.3Q189.71-5.76 191.61-5.05 193.52-4.35 195.79-4.35L195.79-4.35Q199.69-4.35 199.69-6.37L199.69-6.37Q199.69-6.98 199.14-7.35 198.59-7.71 197.52-7.96L197.52-7.96Q196.91-8.08 194.69-8.4L194.69-8.4Q192.22-8.69 190.45-9.07 188.68-9.45 187.24-10.25L187.24-10.25Q183.87-12.11 183.87-16.11L183.87-16.11Q183.87-18.24 185.02-19.82 186.17-21.41 188.18-22.25 190.19-23.1 192.71-23.1L192.71-23.1Q196.4-23.1 199.25-21.31L199.25-21.31 199.25-21.56Q199.25-22.39 199.85-22.74 200.45-23.1 201.99-23.1L201.99-23.1ZM225.18-23.1Q228.89-23.1 231.5-21.5 234.11-19.9 235.44-17.05 236.77-14.21 236.77-10.55L236.77-10.55Q236.77-9.72 236.42-9.38 236.07-9.03 235.24-9.03L235.24-9.03 219.56-9.03Q220.03-7.08 221.55-6.04 223.08-5 225.42-5L225.42-5Q229.21-5 233.63-6.35L233.63-6.35Q233.92-6.45 234.21-6.45L234.21-6.45Q234.75-6.45 235.14-5.96 235.53-5.47 235.85-4.3L235.85-4.3Q236.09-3.39 236.09-2.76L236.09-2.76Q236.09-2.12 235.81-1.77 235.53-1.42 234.89-1.2L234.89-1.2Q232.45-0.39 229.91 0.07 227.38 0.54 224.93 0.54L224.93 0.54Q221.22 0.54 218.54-0.98 215.85-2.49 214.45-5.16 213.04-7.84 213.04-11.28L213.04-11.28Q213.04-14.7 214.51-17.38 215.97-20.07 218.73-21.58 221.49-23.1 225.18-23.1L225.18-23.1ZM225.18-17.55Q220.71-17.55 219.66-13.79L219.66-13.79 230.4-13.79Q229.99-15.58 228.63-16.56 227.28-17.55 225.18-17.55L225.18-17.55Z" opacity="1" transform="matrix(1,0,0,1,0,0)" fill="#000000" class="wordmark-text-0" data-fill-palette-color="primary" id="text-0"></path></svg></g></svg></g></svg></g></svg></g><g transform="matrix(1,0,0,1,0,0.12627998755057135)"><svg viewBox="0 0 60.742628829461275 50.511995020230316" height="50.511995020230316" width="60.742628829461275"><g><svg xmlns="http://www.w3.org/2000/svg" xmlns:xlink="http://www.w3.org/1999/xlink" version="1.1" x="0" y="0" viewBox="3.9702464663747845 11.692205157881084 92.13345833410648 76.61579484211893" enable-background="new 0 0 100 100" xml:space="preserve" height="50.511995020230316" width="60.742628829461275" class="icon-icon-0" data-fill-palette-color="accent" id="icon-0"><g fill="#ffffff" data-fill-palette-color="accent"><path d="M94.365 41.26L52.262 12.395A3.99 3.99 0 0 0 47.739 12.395L5.636 41.26A4.001 4.001 0 0 0 10.16 47.858L14.972 44.559 17.528 42.807V42.895L27.041 36.325 27.015 36.304 34.647 31.072 48.582 21.447C48.694 21.369 48.821 21.329 48.942 21.271L50 20.543 51.061 21.27C51.179 21.327 51.303 21.365 51.415 21.441L73.036 36.264 82.475 42.736 85.135 44.559 90.362 48.143A3.99 3.99 0 0 0 95.403 46.821 4 4 0 0 0 94.365 41.26" fill="#000000" data-fill-palette-color="accent"></path><path d="M74.475 43.312V80.307H59.394V59.016A4 4 0 0 0 55.394 55.016H44.607A4 4 0 0 0 40.607 59.016V80.308H25.526V43.446L23.914 44.559 17.526 48.971V81.524A6.79 6.79 0 0 0 24.309 88.308H75.691A6.79 6.79 0 0 0 82.474 81.524V48.797L76.292 44.559z" fill="#000000" data-fill-palette-color="accent"></path></g></svg></g></svg></g></svg></g><defs></defs></svg><rect width="395.52" height="41.42718367842241" fill="none" stroke="none" visibility="hidden"></rect></g></svg></g></svg>