<svg xmlns="http://www.w3.org/2000/svg" xmlns:xlink="http://www.w3.org/1999/xlink" xmlns:svgjs="http://svgjs.dev/svgjs" version="1.1" width="128" height="128" viewBox="0 0 128 128"><g transform="matrix(0.8046875,0,0,0.8046875,12.254040156542231,21.131967237293026)"><svg xmlns="http://www.w3.org/2000/svg" xmlns:xlink="http://www.w3.org/1999/xlink" viewBox="0 0 96 80" data-background-color="#3b82f6" preserveAspectRatio="xMidYMid meet" height="106" width="128"><g id="tight-bounds" transform="matrix(1,0,0,1,0.22924412594122145,0.3143149135701293)"><svg viewBox="0 0 95.481 79.39952368652507" height="79.39952368652507" width="95.481"><g><svg viewBox="0 0 95.481 79.39952368652507" height="79.39952368652507" width="95.481"><g><svg viewBox="0 0 95.481 79.39952368652507" height="79.39952368652507" width="95.481"><g id="textblocktransform"><svg viewBox="0 0 95.481 79.39952368652507" height="79.39952368652507" width="95.481" id="textblock"><g><svg viewBox="0 0 95.481 79.39952368652507" height="79.39952368652507" width="95.481"><g><svg viewBox="0 0 95.481 79.39952368652507" height="79.39952368652507" width="95.481"><g><svg xmlns="http://www.w3.org/2000/svg" xmlns:xlink="http://www.w3.org/1999/xlink" version="1.1" x="0" y="0" viewBox="3.9702464663747845 11.692205157881084 92.13345833410648 76.61579484211893" enable-background="new 0 0 100 100" xml:space="preserve" height="79.39952368652507" width="95.481" class="icon-icon-0" data-fill-palette-color="accent" id="icon-0"><g fill="#3b82f6" data-fill-palette-color="accent"><path d="M94.365 41.26L52.262 12.395A3.99 3.99 0 0 0 47.739 12.395L5.636 41.26A4.001 4.001 0 0 0 10.16 47.858L14.972 44.559 17.528 42.807V42.895L27.041 36.325 27.015 36.304 34.647 31.072 48.582 21.447C48.694 21.369 48.821 21.329 48.942 21.271L50 20.543 51.061 21.27C51.179 21.327 51.303 21.365 51.415 21.441L73.036 36.264 82.475 42.736 85.135 44.559 90.362 48.143A3.99 3.99 0 0 0 95.403 46.821 4 4 0 0 0 94.365 41.26" fill="#3b82f6" data-fill-palette-color="accent"/><path d="M74.475 43.312V80.307H59.394V59.016A4 4 0 0 0 55.394 55.016H44.607A4 4 0 0 0 40.607 59.016V80.308H25.526V43.446L23.914 44.559 17.526 48.971V81.524A6.79 6.79 0 0 0 24.309 88.308H75.691A6.79 6.79 0 0 0 82.474 81.524V48.797L76.292 44.559z" fill="#3b82f6" data-fill-palette-color="accent"/></g></svg></g></svg></g></svg></g></svg></g></svg></g></svg></g><defs fill="#f7f2f2"/></svg><rect width="95.481" height="79.39952368652507" fill="none" stroke="none" visibility="hidden"/></g></svg></g></svg>